<svg xmlns="http://www.w3.org/2000/svg" viewBox="0 0 1404 936"><filter id="b"><feGaussianBlur stdDeviation="12" /></filter><path fill="#778181" d="M0 0h1404v932H0z"/><g filter="url(#b)" transform="translate(2.7 2.7) scale(5.48438)" fill-opacity=".5"><ellipse rx="1" ry="1" transform="matrix(76.49128 -79.76437 50.8602 48.77318 131.8 130.6)"/><ellipse fill="#fff" rx="1" ry="1" transform="rotate(39.9 -18.7 100) scale(56.65331 228.29061)"/><ellipse fill="#fff" rx="1" ry="1" transform="matrix(27.62393 235.1513 -27.38786 3.21733 241.6 69)"/><ellipse fill="#fff" rx="1" ry="1" transform="rotate(144.3 110.2 47.7) scale(29.83413 153.15639)"/><path d="M73 68h144v102H73z"/><ellipse fill="#100000" cx="164" cy="33" rx="29" ry="29"/><ellipse rx="1" ry="1" transform="matrix(35.07494 1.49956 -1.76404 41.26134 66.6 155)"/><ellipse fill="#fff" rx="1" ry="1" transform="matrix(36.10408 -80.27647 26.34236 11.8474 13.1 121.6)"/></g></svg>