<svg xmlns="http://www.w3.org/2000/svg" viewBox="0 0 936 1404"><filter id="b"><feGaussianBlur stdDeviation="12" /></filter><path fill="#383838" d="M0 0h932v1404H0z"/><g filter="url(#b)" transform="translate(2.7 2.7) scale(5.48438)" fill-opacity=".5"><ellipse fill="#fcfcfc" rx="1" ry="1" transform="matrix(19.40521 11.34083 -19.40652 33.20637 0 70.3)"/><ellipse fill="#888" rx="1" ry="1" transform="rotate(-161.4 55.8 54) scale(41.0472 44.14186)"/><ellipse fill="#020202" rx="1" ry="1" transform="rotate(-97.7 175 51.8) scale(91.10428 26.0196)"/><ellipse rx="1" ry="1" transform="matrix(21.9569 58.2003 -23.0452 8.69413 148.7 72.4)"/><path fill="#fcfcfc" d="M108 134h12v43h-12z"/><ellipse fill="#e3e3e3" rx="1" ry="1" transform="matrix(-1.874 7.87698 -41.28827 -9.82284 9.8 77.5)"/><ellipse fill="#101010" cx="17" cy="181" rx="37" ry="92"/><path fill="#8c8c8c" d="M89.6 220.4L44 209l4.4-17.4L94 203z"/></g></svg>