<svg xmlns="http://www.w3.org/2000/svg" viewBox="0 0 1404 936"><filter id="b"><feGaussianBlur stdDeviation="12" /></filter><path fill="#7c979c" d="M0 0h1404v932H0z"/><g filter="url(#b)" transform="translate(2.7 2.7) scale(5.48438)" fill-opacity=".5"><ellipse fill="#ff6075" rx="1" ry="1" transform="rotate(-113.3 146.6 17.5) scale(57.85145 171.87683)"/><path fill="#0aafaa" d="M1-16l-3 198 213-98z"/><ellipse fill="#ff879a" rx="1" ry="1" transform="rotate(134.2 104.2 60.3) scale(43.13978 113.44953)"/><path fill="#67c6c5" d="M40.7-4.3l52.8-47.5L205.3 72.3l-52.8 47.5z"/><ellipse fill="#bc4f60" rx="1" ry="1" transform="matrix(59.01343 -29.33786 9.05986 18.22402 82.4 169)"/><ellipse fill="#269494" cx="9" cy="105" rx="71" ry="65"/><ellipse fill="#cb8e9b" cx="230" cy="88" rx="31" ry="223"/><ellipse fill="#5fb0b1" rx="1" ry="1" transform="matrix(-90.31926 -72.5281 22.32825 -27.80537 102 23.7)"/></g></svg>