<svg xmlns="http://www.w3.org/2000/svg" viewBox="0 0 936 1404"><filter id="b"><feGaussianBlur stdDeviation="12" /></filter><path fill="#b5b5b3" d="M0 0h932v1404H0z"/><g filter="url(#b)" transform="translate(2.7 2.7) scale(5.48438)" fill-opacity=".5"><ellipse fill="#531800" cx="35" cy="146" rx="92" ry="54"/><ellipse fill="#d7fdff" cx="115" cy="42" rx="148" ry="63"/><ellipse rx="1" ry="1" transform="matrix(-50.58081 -.8388 .28807 -17.37057 28.7 123.3)"/><ellipse fill="#fff" rx="1" ry="1" transform="rotate(-15.2 813.3 -411) scale(85.95283 25.44442)"/><ellipse fill="#ffba33" rx="1" ry="1" transform="matrix(-4.26317 -20.5671 52.92438 -10.97024 76.1 155.2)"/><ellipse rx="1" ry="1" transform="matrix(33.25202 13.29658 -7.79972 19.50549 .4 176.7)"/><path fill="#f6ffff" d="M0 140h126v8H0z"/><ellipse fill="#d9e9ff" rx="1" ry="1" transform="matrix(-17.84575 -.67723 4.98596 -131.38526 158 100.1)"/></g></svg>