<svg xmlns="http://www.w3.org/2000/svg" viewBox="0 0 1404 936"><filter id="b"><feGaussianBlur stdDeviation="12" /></filter><path fill="#8a8886" d="M0 0h1404v932H0z"/><g filter="url(#b)" transform="translate(2.7 2.7) scale(5.48438)" fill-opacity=".5"><ellipse fill="#fff" rx="1" ry="1" transform="matrix(84.09875 101.29744 -67.05188 55.66754 14.5 90.2)"/><ellipse fill="#080e10" cx="219" cy="103" rx="86" ry="109"/><ellipse fill="#f4ffff" cx="15" cy="110" rx="35" ry="139"/><ellipse fill="#030500" rx="1" ry="1" transform="matrix(-5.95173 8.35194 -27.70308 -19.74166 137 68.7)"/><path fill="#efc9a8" d="M87 34l82 30-53-80z"/><path fill="#b6a18f" d="M43-16l58 201 53-70z"/><ellipse fill="#0c1215" rx="1" ry="1" transform="matrix(-42.71335 30.15883 -11.93734 -16.90662 215.7 38.4)"/><ellipse fill="#080c14" rx="1" ry="1" transform="matrix(-11.1557 19.93862 -10.7471 -6.01303 131.4 169)"/></g></svg>