<svg xmlns="http://www.w3.org/2000/svg" viewBox="0 0 936 1404"><filter id="b"><feGaussianBlur stdDeviation="12" /></filter><path fill="#3299b9" d="M0 0h932v1404H0z"/><g filter="url(#b)" transform="translate(2.7 2.7) scale(5.48438)" fill-opacity=".5"><ellipse fill="#a04822" rx="1" ry="1" transform="matrix(-37.00174 -18.10718 74.28426 -151.79871 148.4 206.9)"/><ellipse fill="#caf2ff" rx="1" ry="1" transform="matrix(-4.23202 -17.037 88.73846 -22.0428 130.6 16.2)"/><ellipse cx="129" cy="229" rx="20" ry="26"/><ellipse fill="#00b5ec" rx="1" ry="1" transform="matrix(34.17746 -128.88028 78.6592 20.85945 17.8 119)"/><ellipse fill="#006e96" rx="1" ry="1" transform="matrix(-53.465 54.59667 -24.7764 -24.26283 56 224.5)"/><path fill="#a6a299" d="M172 238l-51-51 64-124z"/><ellipse fill="#67c4ed" rx="1" ry="1" transform="rotate(-28.7 84.4 -128.4) scale(71.01502 20.6647)"/><ellipse fill="#d1ddf4" rx="1" ry="1" transform="rotate(-104.1 84.7 -58) scale(10.95121 68.24054)"/></g></svg>