<svg xmlns="http://www.w3.org/2000/svg" viewBox="0 0 1404 936"><filter id="b"><feGaussianBlur stdDeviation="12" /></filter><path fill="#73644f" d="M0 0h1404v932H0z"/><g filter="url(#b)" transform="translate(2.7 2.7) scale(5.48438)" fill-opacity=".5"><ellipse fill="#ffebc2" rx="1" ry="1" transform="matrix(.57474 23.63836 -99.66951 2.42333 204.6 94.7)"/><ellipse fill="#0d0e0f" cx="28" cy="80" rx="82" ry="48"/><ellipse fill="#fffff2" rx="1" ry="1" transform="rotate(-93.8 70.5 -42.4) scale(23.49541 13.90253)"/><path fill="#f3dec2" d="M168 116l51-105-37-9z"/><ellipse fill="#0c1017" rx="1" ry="1" transform="matrix(.1934 18.46792 -175.96876 1.8428 81 169)"/><path fill="#b7a78a" d="M22.8 83.8l1.4-84 23 .4-1.4 84z"/><ellipse fill="#00081b" cx="153" cy="55" rx="23" ry="22"/><ellipse fill="#02131b" rx="1" ry="1" transform="rotate(-175 115.4 20.2) scale(25.66566 18.82849)"/></g></svg>