<svg xmlns="http://www.w3.org/2000/svg" viewBox="0 0 1404 936"><filter id="b"><feGaussianBlur stdDeviation="12" /></filter><path fill="#d5c2b9" d="M0 0h1404v932H0z"/><g filter="url(#b)" transform="translate(2.7 2.7) scale(5.48438)" fill-opacity=".5"><ellipse fill="#b2160f" rx="1" ry="1" transform="matrix(5.95682 -70.41642 17.83595 1.50882 72.8 92.3)"/><ellipse fill="#efffff" rx="1" ry="1" transform="rotate(-63.3 213.1 -141.2) scale(76.07174 72.77217)"/><path fill="#84000a" d="M46 113l32-52v75z"/><ellipse fill="#db7d5d" rx="1" ry="1" transform="rotate(-123.8 46.5 -9) scale(39.8806 20.99799)"/><ellipse fill="#d19378" rx="1" ry="1" transform="matrix(27.49968 -12.27083 16.88213 37.83388 88 151.6)"/><ellipse fill="#e3fbff" rx="1" ry="1" transform="rotate(19.1 91.6 705.8) scale(75.61436 24.18263)"/><ellipse fill="#a1aba7" cx="156" cy="34" rx="26" ry="67"/><ellipse fill="#eddec1" rx="1" ry="1" transform="matrix(-2.35642 14.64237 -33.47587 -5.38733 36.3 65.6)"/></g></svg>