<svg xmlns="http://www.w3.org/2000/svg" viewBox="0 0 1404 936"><filter id="b"><feGaussianBlur stdDeviation="12" /></filter><path fill="#514a52" d="M0 0h1404v932H0z"/><g filter="url(#b)" transform="translate(2.7 2.7) scale(5.48438)" fill-opacity=".5"><path fill="#d8dcd1" d="M271-4L158.1-5l6.6 59.7 88.5 53.1z"/><ellipse fill="#000009" cx="123" cy="146" rx="151" ry="54"/><ellipse fill="#ffd6aa" rx="1" ry="1" transform="rotate(87.9 -6.8 41.2) scale(83.83595 10.56861)"/><ellipse fill="#9e9bd4" rx="1" ry="1" transform="rotate(16.2 -106.6 351.3) scale(26.87007 39.5294)"/><path fill="#fff" d="M162 2l-1 22 74-33z"/><ellipse fill="#3a2a1c" rx="1" ry="1" transform="matrix(-1.7916 -51.30496 9.47534 -.33089 210.5 63.3)"/><ellipse fill="#140013" rx="1" ry="1" transform="matrix(34.43204 24.26358 -8.12136 11.5249 144.3 74)"/><path fill="#c16e7d" d="M113.8 101.7L39.4 71.9 98.7 38l28.7 55.4z"/></g></svg>