<svg xmlns="http://www.w3.org/2000/svg" viewBox="0 0 1404 936"><filter id="b"><feGaussianBlur stdDeviation="12" /></filter><path fill="#352a2b" d="M0 0h1404v932H0z"/><g filter="url(#b)" transform="translate(2.7 2.7) scale(5.48438)" fill-opacity=".5"><path fill="#ffffe2" d="M175.4 194.4l-8.8-24.4 78-28.4 8.8 24.4z"/><path fill="#bc804e" d="M224.6 36l-1.2 65-52-1 1.2-65z"/><ellipse fill="#000138" cx="133" cy="104" rx="34" ry="101"/><path fill="#030000" d="M71.8 11L45.5 116.8-41.8 95l26.3-105.8z"/><path fill="#cac9bb" d="M147.4 6.2l18.2 32.7L184.4-16 70.4 9z"/><ellipse rx="1" ry="1" transform="matrix(23.34034 -6.03622 32.31084 124.93674 255 53.4)"/><path fill="#94635a" d="M71 7h28v93H71z"/><path fill="#83827a" d="M75 180l-57-64-3 40z"/></g></svg>