<svg xmlns="http://www.w3.org/2000/svg" viewBox="0 0 936 1404"><filter id="b"><feGaussianBlur stdDeviation="12" /></filter><path fill="#15100a" d="M0 0h932v1404H0z"/><g filter="url(#b)" transform="translate(2.7 2.7) scale(5.48438)" fill-opacity=".5"><ellipse fill="#ffe46e" rx="1" ry="1" transform="rotate(-155.9 75.3 70) scale(14.77412 60.6931)"/><path fill="#90bfa3" d="M28 209l100-66-83 97z"/><path fill="#cc6900" d="M33 229.7L47.2 207l72.5-10.4L53.2 241z"/><path fill="#ff9" d="M91 215.3l13.7-65.5 41.3-40-50 91.4z"/><path fill="#000ed2" d="M25.5 204L91 169.4l5.6 10.6L31 214.7z"/><path fill="#d80700" d="M100 220.3l-11.2-6.6 43.3-72 11.1 6.6z"/><ellipse cx="105" cy="39" rx="169" ry="71"/><path d="M10.2 248.7l156.7-63.3 21 52L31 300.5z"/></g></svg>