<svg xmlns="http://www.w3.org/2000/svg" viewBox="0 0 1404 936"><filter id="b"><feGaussianBlur stdDeviation="12" /></filter><path fill="#948180" d="M0 0h1404v932H0z"/><g filter="url(#b)" transform="translate(2.7 2.7) scale(5.48438)" fill-opacity=".5"><ellipse fill="#feffff" cx="113" cy="169" rx="64" ry="49"/><ellipse fill="#f9ffff" rx="1" ry="1" transform="matrix(-63.90081 -9.09443 5.17548 -36.36485 85 18)"/><path fill="#000c21" d="M262 36l2 82-100 67z"/><ellipse fill="#0b1323" rx="1" ry="1" transform="matrix(-47.85189 61.24762 -15.10104 -11.79822 41.4 135.6)"/><ellipse rx="1" ry="1" transform="matrix(-15.2162 -38.82718 14.81716 -5.80678 213.8 19)"/><path fill="#000b16" d="M223.2 16.8l-80 1.4-.4-21 80-1.4z"/><path fill="#edf8c8" d="M213.9 103.4l-2.2 18.5 12.5-40.7 33.8 93.4z"/><path fill="#88564b" d="M27 63h101v70H27z"/></g></svg>