<svg xmlns="http://www.w3.org/2000/svg" viewBox="0 0 1404 936"><filter id="b"><feGaussianBlur stdDeviation="12" /></filter><path fill="#626d6e" d="M0 0h1404v932H0z"/><g filter="url(#b)" transform="translate(2.7 2.7) scale(5.48438)" fill-opacity=".5"><ellipse fill="#fcffff" rx="1" ry="1" transform="rotate(-177.5 102.1 6.5) scale(136.3582 54.46733)"/><ellipse rx="1" ry="1" transform="matrix(-228.33487 25.01107 -5.86193 -53.51557 117.5 169)"/><ellipse fill="#edfaf8" cx="70" cy="98" rx="70" ry="23"/><ellipse rx="1" ry="1" transform="matrix(-.17728 32.1811 -254.99613 -1.40475 130.3 150.6)"/><ellipse fill="#fff" rx="1" ry="1" transform="matrix(-9.66063 19.54974 -48.05528 -23.74681 208.4 28.1)"/><ellipse fill="#9caeae" rx="1" ry="1" transform="matrix(-39.36646 67.2965 -41.73918 -24.41618 102 57)"/><path d="M215 92l56 91-287-17z"/><ellipse fill="#fff" rx="1" ry="1" transform="matrix(.61954 -7.25331 75.1887 6.42225 78 105.8)"/></g></svg>