<svg xmlns="http://www.w3.org/2000/svg" viewBox="0 0 1404 936"><filter id="b"><feGaussianBlur stdDeviation="12" /></filter><path fill="#366484" d="M0 0h1404v932H0z"/><g filter="url(#b)" transform="translate(2.7 2.7) scale(5.48438)" fill-opacity=".5"><ellipse fill="#fff" cx="52" cy="6" rx="57" ry="72"/><ellipse fill="#d1ffff" rx="1" ry="1" transform="rotate(9.5 89.3 1074.2) scale(78.21166 40.42412)"/><ellipse fill="#000010" rx="1" ry="1" transform="matrix(-254.96854 4.00537 -.79006 -50.29294 147.7 143)"/><ellipse fill="#0fabee" rx="1" ry="1" transform="matrix(74.69839 -18.03441 7.18427 29.75718 208.7 50.5)"/><ellipse fill="#190000" cx="120" cy="35" rx="24" ry="24"/><path fill="#faf5ff" d="M136.8 60.8l22.8-74.6 29.6 9-22.8 74.6z"/><ellipse fill="#fff" rx="1" ry="1" transform="rotate(79.1 49 59.4) scale(17.73577 80.12665)"/><ellipse fill="#0058a5" rx="1" ry="1" transform="rotate(33.5 -121.8 285.5) scale(35.01346 49.7067)"/></g></svg>