<svg xmlns="http://www.w3.org/2000/svg" viewBox="0 0 1404 936"><filter id="b"><feGaussianBlur stdDeviation="12" /></filter><path fill="#554e45" d="M0 0h1404v932H0z"/><g filter="url(#b)" transform="translate(2.7 2.7) scale(5.48438)" fill-opacity=".5"><ellipse rx="1" ry="1" transform="matrix(83.2422 -18.83797 9.18179 40.57297 36 37.7)"/><ellipse fill="#ddcbb5" rx="1" ry="1" transform="matrix(12.14887 -33.27832 60.9951 22.2674 65.8 115.6)"/><ellipse fill="#d4c6ab" rx="1" ry="1" transform="matrix(-98.86538 40.18027 -15.0666 -37.07207 208.3 167.8)"/><path fill="#eedcc7" d="M177 73l-34-47 101 27z"/><ellipse fill="#000002" rx="1" ry="1" transform="matrix(8.03652 -19.69667 54.50487 22.23875 161.7 81)"/><ellipse rx="1" ry="1" transform="rotate(-128.8 25.5 6.8) scale(42.57617 65.80282)"/><ellipse fill="#000c0a" rx="1" ry="1" transform="matrix(3.15191 7.11101 -41.42147 18.35983 49.5 112.5)"/><ellipse cx="169" cy="9" rx="46" ry="18"/></g></svg>