<svg xmlns="http://www.w3.org/2000/svg" viewBox="0 0 936 1404"><filter id="b"><feGaussianBlur stdDeviation="12" /></filter><path fill="#111112" d="M0 0h932v1404H0z"/><g filter="url(#b)" transform="translate(2.7 2.7) scale(5.48438)" fill-opacity=".5"><ellipse fill="#fff" rx="1" ry="1" transform="matrix(.04792 -25.75622 28.11238 .0523 86.2 143.7)"/><path fill="#eefaff" d="M63 125h43v37H63z"/><path fill="#27485d" d="M108.6 184.3l-5-57.8 31.8-2.8 5 57.8z"/><path d="M98 163L17 271l-33-113z"/><path fill="#fffeff" d="M81 105h7v49h-7z"/><ellipse rx="1" ry="1" transform="matrix(-162.1484 -47.63295 20.3365 -69.22795 109.7 37.2)"/><ellipse rx="1" ry="1" transform="matrix(-163.58047 8.28663 -1.75345 -34.61356 85.5 232.6)"/><ellipse fill="#172634" cx="75" cy="117" rx="3" ry="55"/></g></svg>