<svg xmlns="http://www.w3.org/2000/svg" viewBox="0 0 1404 936"><filter id="b"><feGaussianBlur stdDeviation="12" /></filter><path fill="#462d3f" d="M0 0h1404v932H0z"/><g filter="url(#b)" transform="translate(2.7 2.7) scale(5.48438)" fill-opacity=".5"><ellipse fill="#e594b7" rx="1" ry="1" transform="rotate(78.1 20.5 121.5) scale(38.40222 97.67403)"/><path d="M271 177l-287-10 224-71z"/><path d="M114 77h22v93h-22z"/><ellipse rx="1" ry="1" transform="rotate(68.9 -20.3 14) scale(35.83569 188.91968)"/><ellipse cx="16" cy="146" rx="39" ry="51"/><ellipse fill="#797cc1" rx="1" ry="1" transform="matrix(10.0092 37.61737 -21.8341 5.8096 238.8 94.7)"/><ellipse fill="#efa9c6" rx="1" ry="1" transform="matrix(-9.32114 22.72728 -34.39827 -14.10776 153.8 70)"/><ellipse rx="1" ry="1" transform="matrix(-11.39125 31.09248 -167.91323 -61.51781 219.8 0)"/></g></svg>