<svg xmlns="http://www.w3.org/2000/svg" viewBox="0 0 936 1404"><filter id="b"><feGaussianBlur stdDeviation="12" /></filter><path fill="#917875" d="M0 0h932v1404H0z"/><g filter="url(#b)" transform="translate(2.7 2.7) scale(5.48438)" fill-opacity=".5"><ellipse fill="#f8ffff" rx="1" ry="1" transform="matrix(-129.9722 -2.0242 .62192 -39.933 45.1 38)"/><ellipse fill="#683432" cx="147" cy="216" rx="150" ry="150"/><ellipse fill="#ff8b44" rx="1" ry="1" transform="matrix(17.0719 65.54001 -30.58915 7.96788 115.2 208)"/><path fill="#2c0000" d="M136.2 25.6l-34.8 12.7-11.6-32 34.8-12.6z"/><ellipse fill="#b0dcff" rx="1" ry="1" transform="matrix(23.166 7.79622 -8.88945 26.41447 99.9 235.1)"/><ellipse fill="#13000f" rx="1" ry="1" transform="rotate(-22.8 520.1 -76.9) scale(39.2442 20.97814)"/><ellipse fill="#9ccdd2" rx="1" ry="1" transform="rotate(-94.1 68.2 20.9) scale(21.40442 60.55101)"/><path fill="#c7ffff" d="M87 2.4l-77.7 75L-33 33.7l77.7-75z"/></g></svg>