<svg xmlns="http://www.w3.org/2000/svg" viewBox="0 0 936 1404"><filter id="b"><feGaussianBlur stdDeviation="12" /></filter><path fill="#19150c" d="M0 0h932v1404H0z"/><g filter="url(#b)" transform="translate(2.7 2.7) scale(5.48438)" fill-opacity=".5"><ellipse fill="#ffffa4" rx="1" ry="1" transform="matrix(-92.85856 6.1299 -.72059 -10.91584 56.6 103.6)"/><path fill="#fff4a0" d="M5 94h17v64H5z"/><path fill="#90704e" d="M95 103l37-33 14 43z"/><ellipse cx="100" cy="29" rx="146" ry="45"/><ellipse rx="1" ry="1" transform="matrix(-29.98243 -37.69308 64.20594 -51.07171 135.3 152)"/><path fill="#f1dea0" d="M24 95.4l47.8-1.2-11 15.8-59 11z"/><path fill="#6d5921" d="M20 210h83v21H20z"/><ellipse rx="1" ry="1" transform="matrix(148.62298 4.93033 -.63585 19.16734 64.5 245.8)"/></g></svg>