<svg xmlns="http://www.w3.org/2000/svg" viewBox="0 0 936 1404"><filter id="b"><feGaussianBlur stdDeviation="12" /></filter><path fill="#531981" d="M0 0h932v1404H0z"/><g filter="url(#b)" transform="translate(2.7 2.7) scale(5.48438)" fill-opacity=".5"><ellipse fill="#fd1915" rx="1" ry="1" transform="matrix(-.82993 68.38795 -28.66887 -.34792 76.3 221.5)"/><ellipse fill="#5630ec" cx="150" cy="75" rx="53" ry="108"/><path d="M178 223L42 254l138 17z"/><ellipse fill="#200932" rx="1" ry="1" transform="matrix(39.16783 -1.72944 6.22875 141.06698 8.5 197.2)"/><path fill="#fb0068" d="M101 139L76 57 63 207z"/><path fill="#00005f" d="M80.5 208.8l6.5 28.3-17.5 4L63 213z"/><ellipse fill="#ff2d41" rx="1" ry="1" transform="matrix(26.28206 49.79775 -8.60555 4.5418 96.8 216.4)"/><ellipse fill="#261b9c" cx="23" cy="42" rx="71" ry="71"/></g></svg>