<svg xmlns="http://www.w3.org/2000/svg" viewBox="0 0 1404 936"><filter id="b"><feGaussianBlur stdDeviation="12" /></filter><path fill="#37393d" d="M0 0h1404v932H0z"/><g filter="url(#b)" transform="translate(2.7 2.7) scale(5.48438)" fill-opacity=".5"><ellipse fill="#eaffff" rx="1" ry="1" transform="rotate(162 65.6 23) scale(24.91718 128.47088)"/><ellipse fill="#fff" cx="53" cy="149" rx="22" ry="46"/><ellipse rx="1" ry="1" transform="matrix(-28.20854 -127.42923 48.31799 -10.69598 215 46.5)"/><ellipse rx="1" ry="1" transform="matrix(42.54158 10.3614 -39.15235 160.75081 17 51.8)"/><ellipse fill="#fbffff" cx="136" cy="117" rx="8" ry="253"/><ellipse fill="#000922" rx="1" ry="1" transform="rotate(172 71.8 57.7) scale(9.24107 51.20983)"/><ellipse fill="#fff" rx="1" ry="1" transform="rotate(-103.9 83.6 -46.4) scale(46.16815 11.87847)"/><ellipse rx="1" ry="1" transform="matrix(-29.9165 -14.26944 87.19916 -182.81684 34 35.1)"/></g></svg>