<svg xmlns="http://www.w3.org/2000/svg" viewBox="0 0 1404 936"><filter id="b"><feGaussianBlur stdDeviation="12" /></filter><path fill="#272320" d="M0 0h1404v932H0z"/><g filter="url(#b)" transform="translate(2.7 2.7) scale(5.48438)" fill-opacity=".5"><ellipse fill="#b59d8e" rx="1" ry="1" transform="matrix(-39.73938 128.35104 -44.73816 -13.8516 49.6 47.6)"/><path fill="#fff" d="M105.5 0L74.9-16l7.2 33.1 20 27.3z"/><ellipse rx="1" ry="1" transform="matrix(110.47874 30.01766 -49.87394 183.55892 211.4 69.2)"/><path fill="#060000" d="M7 9h62v25H7z"/><path fill="#fff" d="M68 43h11v19H68z"/><ellipse fill="#231a14" rx="1" ry="1" transform="matrix(73.89942 99.6335 -6.43192 4.77063 27.8 100.9)"/><ellipse cx="193" cy="101" rx="109" ry="109"/><path fill="#8a8e8c" d="M91.6 115.1l.1 41.3-4.2 28.6-19.3-1z"/></g></svg>