<svg xmlns="http://www.w3.org/2000/svg" viewBox="0 0 1404 936"><filter id="b"><feGaussianBlur stdDeviation="12" /></filter><path fill="#444c5e" d="M0 0h1404v932H0z"/><g filter="url(#b)" transform="translate(2.7 2.7) scale(5.48438)" fill-opacity=".5"><ellipse fill="#baacb7" rx="1" ry="1" transform="rotate(162.4 43.6 16.3) scale(158.62222 49.66178)"/><ellipse rx="1" ry="1" transform="matrix(-188.39994 -68.40261 19.70717 -54.27906 41.9 152.7)"/><ellipse fill="#0072eb" rx="1" ry="1" transform="rotate(-73.6 159 -64.3) scale(46.08268 28.07652)"/><ellipse fill="#0a0000" cx="120" cy="98" rx="26" ry="39"/><ellipse fill="#dc7555" rx="1" ry="1" transform="rotate(55.3 61 205.2) scale(15.47877 59.7175)"/><ellipse fill="#00233d" rx="1" ry="1" transform="matrix(-39.1441 98.08677 -41.2156 -16.44817 218.8 136.6)"/><ellipse fill="#47b1f4" rx="1" ry="1" transform="matrix(-24.79665 22.4055 -20.2917 -22.45726 110.8 7.3)"/><ellipse fill="#0096f7" rx="1" ry="1" transform="matrix(-1.433 -9.52541 19.68962 -2.9621 74.3 102)"/></g></svg>