<svg xmlns="http://www.w3.org/2000/svg" viewBox="0 0 1404 936"><filter id="b"><feGaussianBlur stdDeviation="12" /></filter><path fill="#1d2225" d="M0 0h1404v932H0z"/><g filter="url(#b)" transform="translate(2.7 2.7) scale(5.48438)" fill-opacity=".5"><ellipse fill="#848f9d" rx="1" ry="1" transform="matrix(-62.77072 4.99333 -3.05985 -38.46503 43.9 124)"/><ellipse fill="#6e7984" rx="1" ry="1" transform="matrix(5.02415 20.96647 -52.58742 12.6014 186.1 141.7)"/><ellipse rx="1" ry="1" transform="matrix(-223.29972 -17.41268 4.11913 -52.82356 168 37.1)"/><ellipse fill="#a4b5c4" rx="1" ry="1" transform="matrix(-6.9618 -1.83902 6.08944 -23.05222 214.8 114.2)"/><path d="M48 98h18v40H48z"/><ellipse cx="155" cy="149" rx="35" ry="7"/><path fill="#7a8a9a" d="M11 66l1 34h98z"/><ellipse fill="#74818c" rx="1" ry="1" transform="matrix(-3.15901 9.16157 -71.80485 -24.75913 239.1 149.7)"/></g></svg>