<svg xmlns="http://www.w3.org/2000/svg" viewBox="0 0 936 1404"><filter id="b"><feGaussianBlur stdDeviation="12" /></filter><path fill="#2a2522" d="M0 0h932v1404H0z"/><g filter="url(#b)" transform="translate(2.7 2.7) scale(5.48438)" fill-opacity=".5"><ellipse fill="#fffffe" rx="1" ry="1" transform="matrix(-17.16665 5.761 -31.25293 -93.12749 91.7 90.8)"/><ellipse rx="1" ry="1" transform="rotate(-174.8 18.8 86) scale(67.96352 106.00076)"/><ellipse cx="31" cy="61" rx="31" ry="169"/><path fill="#fffaec" d="M62.7 99.6l1-61L140.5 209 102 80.2z"/><ellipse cx="70" cy="234" rx="154" ry="38"/><ellipse fill="#6b5a49" rx="1" ry="1" transform="rotate(-174 57.5 12.8) scale(28.33598 63.80941)"/><path fill="#ffffec" d="M92 65.7l7.8 10L61.6-16v68z"/><path fill="#eedfd6" d="M134.2 172.4l1.2 5.4L88.5 71.9 107 189.2z"/></g></svg>