<svg xmlns="http://www.w3.org/2000/svg" viewBox="0 0 1404 936"><filter id="c"><feGaussianBlur stdDeviation="55" /></filter><path fill="#755d40" d="M0 0h1404v932H0z"/><g filter='url(#c)' fill-opacity='.5'><ellipse fill="#090000" fill-opacity=".5" rx="1" ry="1" transform="rotate(63.8 329.6 539.7) scale(355.67956 678.70752)"/><ellipse fill="#c4c2b5" fill-opacity=".5" rx="1" ry="1" transform="matrix(15.83365 208.64099 -846.8922 64.2702 426.7 704.3)"/><ellipse fill-opacity=".5" rx="1" ry="1" transform="matrix(.6862 -185.14794 376.85155 1.3967 731.6 67.8)"/><ellipse fill="#9f560d" fill-opacity=".5" rx="1" ry="1" transform="matrix(-311.95662 -162.5959 64.83645 -124.39526 614 402.5)"/><ellipse fill="#24231d" fill-opacity=".5" rx="1" ry="1" transform="matrix(70.7969 59.80244 -158.83245 188.03321 900.3 879.2)"/><ellipse fill="#d1c0a6" fill-opacity=".5" rx="1" ry="1" transform="rotate(-53.1 1247 -833.6) scale(78.9929 391.69323)"/><ellipse fill="#6b3400" fill-opacity=".5" rx="1" ry="1" transform="matrix(-124.03542 17.48956 -40.80424 -289.38242 1178.7 292)"/><ellipse fill="#ec9832" fill-opacity=".5" rx="1" ry="1" transform="matrix(-81.07416 10.5284 -49.32342 -379.81611 1374.9 156.7)"/></g></svg>