<svg xmlns="http://www.w3.org/2000/svg" viewBox="0 0 1404 936"><filter id="b"><feGaussianBlur stdDeviation="12" /></filter><path fill="#8b8989" d="M0 0h1404v932H0z"/><g filter="url(#b)" transform="translate(2.7 2.7) scale(5.48438)" fill-opacity=".5"><ellipse fill="#fff" rx="1" ry="1" transform="matrix(28.71576 33.50325 -124.25348 106.49811 35.7 27)"/><ellipse fill="#fff" cx="222" cy="34" rx="64" ry="44"/><ellipse fill="#161717" cx="126" cy="138" rx="127" ry="71"/><ellipse fill="#fff" rx="1" ry="1" transform="matrix(-25.79308 48.81334 -14.16968 -7.48729 139.4 166.6)"/><path fill="#fff" d="M57-11l-73 65 149 16zm210.6 88l-69.9 64 15.3 37.6 40.3-161zM75 142l7 30 31-62zm-4.4-28.8l-14 2.9L33.4 162l1-49z"/></g></svg>