<svg xmlns="http://www.w3.org/2000/svg" viewBox="0 0 936 1404"><filter id="b"><feGaussianBlur stdDeviation="12" /></filter><path fill="#040503" d="M0 0h932v1404H0z"/><g filter="url(#b)" transform="translate(2.7 2.7) scale(5.48438)" fill-opacity=".5"><ellipse fill="#463d2b" rx="1" ry="1" transform="matrix(23.25283 -67.15017 7.74595 2.68228 68.3 119.7)"/><path fill="#6f7b6d" d="M25.6 162.5l10-9.9 14.8 14.9-10 9.9z"/><path fill="#a48f79" d="M77 89l-11 11 35-6z"/><path fill="#110f08" d="M185 175l-120-1-11-83z"/><path fill="#4d533e" d="M96 62.8l-3.5 2.8L82 58.2 63 74.7z"/><ellipse fill="#000001" rx="1" ry="1" transform="rotate(-150.9 39.2 58.7) scale(18.45038 30.2803)"/><path fill="#42483b" d="M58.4 155l7.6-17-43.5 27 23.7 11.7z"/><ellipse cx="92" cy="222" rx="169" ry="43"/></g></svg>