<svg xmlns="http://www.w3.org/2000/svg" viewBox="0 0 936 1404"><filter id="b"><feGaussianBlur stdDeviation="12" /></filter><path fill="#5583ad" d="M0 0h932v1404H0z"/><g filter="url(#b)" transform="translate(2.7 2.7) scale(5.48438)" fill-opacity=".5"><ellipse fill="#fff" rx="1" ry="1" transform="matrix(-7.40082 108.5591 -11.67627 -.796 69 100)"/><ellipse fill="#4ec2ff" rx="1" ry="1" transform="matrix(-31.68793 -4.00312 21.18131 -167.66736 10.6 76)"/><ellipse fill="#365a81" rx="1" ry="1" transform="rotate(-80.4 158 -8.3) scale(169 57.67534)"/><path fill="#fffffe" d="M53 226l26-78-21-24z"/><ellipse fill="#3c6289" cx="39" cy="185" rx="12" ry="77"/><ellipse fill="#496a8e" rx="1" ry="1" transform="matrix(-14.77169 -2.89352 12.54996 -64.0687 70 229.9)"/><ellipse fill="#000508" rx="1" ry="1" transform="rotate(101.4 -98.4 131.4) scale(169 1)"/><path fill="#d8d1d2" d="M21.6 209.6l4-3.3.1 54-7 4z"/></g></svg>