<svg xmlns="http://www.w3.org/2000/svg" viewBox="0 0 1404 936"><filter id="b"><feGaussianBlur stdDeviation="12" /></filter><path fill="#dbbb9c" d="M0 0h1404v932H0z"/><g filter="url(#b)" transform="translate(2.7 2.7) scale(5.48438)" fill-opacity=".5"><ellipse fill="#000e00" rx="1" ry="1" transform="rotate(21.8 -325.5 77) scale(17.97026 56.95508)"/><ellipse fill="#002a00" rx="1" ry="1" transform="matrix(3.47452 2.73894 -51.44655 65.26327 52.4 138.4)"/><ellipse fill="#ffecd1" cx="60" cy="9" rx="69" ry="69"/><path d="M74 76h22v25H74z"/><ellipse fill="#4b7100" rx="1" ry="1" transform="matrix(-20.9465 16.76182 -5.90237 -7.37593 58.3 159.6)"/><path fill="#0e3e00" d="M-16 105l54.2.4-14.5 26.8L-7.9 185z"/><ellipse fill="#fff4ce" rx="1" ry="1" transform="rotate(3.3 -2448.2 1939.2) scale(14.25115 135.1173)"/><path fill="#fff1cc" d="M7.1 115.3l5.8-8 8.3-52.6 8 22.6z"/></g></svg>