<svg xmlns="http://www.w3.org/2000/svg" viewBox="0 0 1404 936"><filter id="b"><feGaussianBlur stdDeviation="12" /></filter><path fill="#959798" d="M0 0h1404v932H0z"/><g filter="url(#b)" transform="translate(2.7 2.7) scale(5.48438)" fill-opacity=".5"><ellipse fill="#221d11" rx="1" ry="1" transform="matrix(-81.6403 4.30552 -1.93064 -36.60836 66.4 93.7)"/><ellipse fill="#ffe7cd" rx="1" ry="1" transform="matrix(1.5221 -23.63411 104.03037 6.69985 70.1 152.9)"/><ellipse fill="#f3f0f6" rx="1" ry="1" transform="rotate(66.5 -7.8 24) scale(29.34725 40.12245)"/><ellipse fill="#f7fcff" rx="1" ry="1" transform="rotate(141 88.5 111.8) scale(23.59574 19.10477)"/><ellipse fill="#070200" cx="109" cy="113" rx="30" ry="14"/><ellipse fill="#b0c5d5" rx="1" ry="1" transform="matrix(66.53708 3.37062 -2.0774 41.00849 200.3 22.3)"/><ellipse fill="#6e7679" rx="1" ry="1" transform="matrix(-8.57526 -29.93986 57.30783 -16.4139 75.3 59)"/><ellipse fill="#c8c8cb" rx="1" ry="1" transform="rotate(-142.1 54.9 -8.3) scale(14.93421 69.78784)"/></g></svg>