<svg xmlns="http://www.w3.org/2000/svg" viewBox="0 0 936 1404"><filter id="c"><feGaussianBlur stdDeviation="55" /></filter><path fill="#0f1011" d="M0 0h932v1404H0z"/><g filter='url(#c)' fill-opacity='.5'><ellipse fill="#757981" fill-opacity=".5" rx="1" ry="1" transform="matrix(-97.24367 16.09858 -38.36647 -231.75308 387.1 826.2)"/><ellipse fill="#a7acb6" fill-opacity=".5" rx="1" ry="1" transform="matrix(18.96992 -2.80628 23.97063 162.03668 402 1024.2)"/><path fill="#5c575a" fill-opacity=".5" d="M102.7 638.3L88 588l196-109.2 123 207z"/><ellipse fill="#ebffff" fill-opacity=".5" rx="1" ry="1" transform="matrix(-39.39278 -59.08825 10.97213 -7.31486 376.4 659.7)"/><path fill="#010405" fill-opacity=".5" d="M282.4 688.3l735 718.4-334.6 5.5z"/><path fill-opacity=".5" d="M-85 830.9l477-27.4-76.7-109.7z"/><path fill="#625c61" fill-opacity=".5" d="M263 821.8l114.4 14-20.7 168.7-114.3-14z"/><ellipse fill="#040000" fill-opacity=".5" rx="1" ry="1" transform="matrix(-139.03618 -656.3859 206.394 -43.71854 63.3 1154.8)"/></g></svg>