<svg xmlns="http://www.w3.org/2000/svg" viewBox="0 0 1404 936"><filter id="b"><feGaussianBlur stdDeviation="12" /></filter><path fill="#a8a99d" d="M0 0h1404v932H0z"/><g filter="url(#b)" transform="translate(2.7 2.7) scale(5.48438)" fill-opacity=".5"><ellipse fill="#fff" rx="1" ry="1" transform="matrix(-49.83129 49.6267 -67.37272 -67.65046 238.5 55)"/><ellipse fill="#475d5f" rx="1" ry="1" transform="rotate(-87.3 54 29) scale(214.47279 34.69654)"/><path fill="#6b3b06" d="M235.5 156.2l-11.6 11.1L106.5 45.8l11.6-11.1z"/><ellipse fill="#190000" cx="208" cy="91" rx="4" ry="52"/><ellipse fill="#342806" rx="1" ry="1" transform="matrix(16.50359 -.03186 .09623 49.84406 130.9 163.7)"/><path fill="#fff" d="M100 168l36-89-37-39z"/><ellipse fill="#fff" rx="1" ry="1" transform="rotate(99.7 90 133.8) scale(72.53376 23.4031)"/><ellipse fill="#936224" rx="1" ry="1" transform="matrix(.72887 -14.90282 101.2444 4.95168 204 169)"/></g></svg>