<svg xmlns="http://www.w3.org/2000/svg" viewBox="0 0 936 1404"><filter id="b"><feGaussianBlur stdDeviation="12" /></filter><path fill="#17110e" d="M0 0h932v1404H0z"/><g filter="url(#b)" transform="translate(2.7 2.7) scale(5.48438)" fill-opacity=".5"><ellipse fill="#917b6e" rx="1" ry="1" transform="matrix(6.3909 30.47515 -165.40212 34.6863 95.7 242.2)"/><path fill="#39302a" d="M-16 257l75-105 126 58z"/><ellipse cx="94" cy="59" rx="106" ry="106"/><ellipse fill="#9d7c68" rx="1" ry="1" transform="matrix(-3.9537 -19.09166 62.18282 -12.87744 89.9 253)"/><path fill="#bdedff" d="M38.2 232.3l-1.1-4.9 50.7-11.7 1.1 4.9z"/><path fill="#aec2d9" d="M88.4 197l-8 .8-2.8-32.9 8-.7z"/><path d="M124.5 229.2l-140.5 14h81l43.4-40z"/><ellipse rx="1" ry="1" transform="matrix(56.17758 -72.97398 114.43546 88.09589 90.6 60)"/></g></svg>