<svg xmlns="http://www.w3.org/2000/svg" viewBox="0 0 936 1404"><filter id="c"><feGaussianBlur stdDeviation="55" /></filter><path fill="#251a14" d="M0 0h932v1404H0z"/><g filter='url(#c)' fill-opacity='.5'><ellipse fill="#c5a998" fill-opacity=".5" rx="1" ry="1" transform="matrix(32.22152 137.2686 -725.23358 170.2365 588.4 1401.3)"/><ellipse fill="#c0eaff" fill-opacity=".5" rx="1" ry="1" transform="rotate(166.6 110.5 634) scale(155.3489 21.32941)"/><path fill="#8a99aa" fill-opacity=".5" d="M430.5 902.2h65.8V1116h-65.8z"/><ellipse fill="#6b5a4f" fill-opacity=".5" rx="1" ry="1" transform="rotate(101.8 -69.4 927.7) scale(91.25665 226.78883)"/><path fill="#7f6451" fill-opacity=".5" d="M123 1486.8l-172.2-33.5L3 1184l172.3 33.5z"/><ellipse fill="#060000" fill-opacity=".5" rx="1" ry="1" transform="rotate(-160 308.5 193.6) scale(815.32265 432.68016)"/><path fill="#58504d" fill-opacity=".5" d="M298.9 874.8h213.9v175.5H298.9z"/><ellipse fill="#090000" fill-opacity=".5" rx="1" ry="1" transform="matrix(181.45847 101.03375 -59.37465 106.63796 109 853.4)"/></g></svg>