<svg xmlns="http://www.w3.org/2000/svg" viewBox="0 0 936 1404"><filter id="b"><feGaussianBlur stdDeviation="12" /></filter><path fill="#1c2b24" d="M0 0h932v1404H0z"/><g filter="url(#b)" transform="translate(2.7 2.7) scale(5.48438)" fill-opacity=".5"><ellipse fill="#699a93" rx="1" ry="1" transform="matrix(-2.60396 -59.64058 37.62894 -1.64292 55.9 79.5)"/><path fill="#fff" d="M36 30h110v7H36z"/><ellipse rx="1" ry="1" transform="matrix(-11.99875 -26.8932 114.10259 -50.90835 90 207.3)"/><ellipse cy="167" rx="28" ry="133"/><path d="M144.9-8.8l2.7 30.8L1 34.8-1.6 4z"/><path fill="#fff" d="M27.5 33.3l-16 7.8 3.7 7.3 24-14.8z"/><ellipse fill="#2e665c" cx="53" cy="153" rx="26" ry="39"/><ellipse fill="#000200" rx="1" ry="1" transform="matrix(14.66828 18.1786 -46.89377 37.8385 145.2 122.9)"/></g></svg>