<svg xmlns="http://www.w3.org/2000/svg" viewBox="0 0 936 1404"><filter id="b"><feGaussianBlur stdDeviation="12" /></filter><path fill="#273f31" d="M0 0h932v1404H0z"/><g filter="url(#b)" transform="translate(2.7 2.7) scale(5.48438)" fill-opacity=".5"><ellipse fill="#87b8d8" rx="1" ry="1" transform="matrix(-10.48178 18.15498 -121.97766 -70.42383 78 167.6)"/><ellipse rx="1" ry="1" transform="rotate(-155.1 45.7 111.9) scale(167.41713 44.99862)"/><ellipse fill="#000800" rx="1" ry="1" transform="matrix(34.54793 54.2294 -30.86461 19.66293 125.3 126)"/><ellipse cx="17" rx="63" ry="63"/><ellipse fill="#4a8a00" rx="1" ry="1" transform="matrix(-27.08904 20.6637 -76.86991 -100.77243 153.6 23)"/><ellipse fill="#6a8c97" rx="1" ry="1" transform="rotate(-12.7 353.4 -65) scale(67.77611 11.28281)"/><path fill="#6b9892" d="M-3 46l-.7-7L75 32l.7 7z"/><ellipse rx="1" ry="1" transform="rotate(-143 48 112.3) scale(169 32.65206)"/></g></svg>