<svg xmlns="http://www.w3.org/2000/svg" viewBox="0 0 1404 936"><filter id="b"><feGaussianBlur stdDeviation="12" /></filter><path fill="#877766" d="M0 0h1404v932H0z"/><g filter="url(#b)" transform="translate(2.7 2.7) scale(5.48438)" fill-opacity=".5"><ellipse rx="1" ry="1" transform="rotate(-81.4 69.5 25.9) scale(241.5217 50.07265)"/><ellipse fill="#fffbda" rx="1" ry="1" transform="matrix(-74.00692 -17.22195 30.5659 -131.3491 155 88.8)"/><ellipse rx="1" ry="1" transform="matrix(-48.18674 -19.07848 79.68028 -201.2494 22.7 59.1)"/><ellipse fill="#fff" cx="191" rx="45" ry="45"/><path fill="#fffff8" d="M81.2 79.6l-12 35-12.4-4.2 12-35z"/><ellipse fill="#100000" rx="1" ry="1" transform="matrix(1.40621 -2.97153 68.83344 32.57396 104.7 139.9)"/><ellipse rx="1" ry="1" transform="rotate(77.7 -75.8 98.7) scale(236.91699 32.21418)"/><ellipse fill="#491e13" cx="121" cy="83" rx="5" ry="47"/></g></svg>