<svg xmlns="http://www.w3.org/2000/svg" viewBox="0 0 936 1404"><filter id="b"><feGaussianBlur stdDeviation="12" /></filter><path fill="#121010" d="M0 0h932v1404H0z"/><g filter="url(#b)" transform="translate(2.7 2.7) scale(5.48438)" fill-opacity=".5"><ellipse fill="#ffdfe0" rx="1" ry="1" transform="rotate(-72.9 203.2 63.2) scale(30.71705 41.32972)"/><path fill="#b9a9a9" d="M90.7 271l31.7-14.9-25.3-83.6-.5-3.3z"/><ellipse cx="58" cy="75" rx="137" ry="137"/><ellipse fill="#2d3a44" rx="1" ry="1" transform="rotate(150.5 22.4 92.6) scale(17.58746 49.01519)"/><ellipse fill="#604745" rx="1" ry="1" transform="matrix(10.36025 55.28685 -13.08887 2.45273 51.1 255)"/><path d="M171.3 268.9L185 1.5 99.2-16l15.6 258.8z"/><path fill="#b09a9a" d="M49 229l80 31-24-57z"/><path fill="#6b899d" d="M95.2 190.4l23.6.3-42-14.2 2.5 7.6z"/></g></svg>