<svg xmlns="http://www.w3.org/2000/svg" viewBox="0 0 936 1404"><filter id="b"><feGaussianBlur stdDeviation="12" /></filter><path fill="#254870" d="M0 0h932v1404H0z"/><g filter="url(#b)" transform="translate(2.7 2.7) scale(5.48438)" fill-opacity=".5"><ellipse fill="#97d7ff" rx="1" ry="1" transform="matrix(22.41255 142.57429 -34.32314 5.39557 23.3 208)"/><ellipse rx="1" ry="1" transform="matrix(17.14394 83.40047 -27.1996 5.5912 87 201.7)"/><ellipse fill="#000b22" rx="1" ry="1" transform="matrix(38.43283 -26.35404 41.83232 61.00522 88.1 7.2)"/><ellipse fill="#0073cf" rx="1" ry="1" transform="rotate(152.1 45.6 136) scale(24.25742 72.25983)"/><ellipse fill="#8bc9ff" rx="1" ry="1" transform="rotate(156.7 -12.4 123.3) scale(36.49788 56.01927)"/><ellipse cx="86" cy="221" rx="25" ry="80"/><ellipse fill="#51648f" rx="1" ry="1" transform="matrix(15.39194 56.26783 -35.84249 9.80463 24 100)"/><ellipse fill="#003568" cx="169" cy="157" rx="66" ry="66"/></g></svg>