<svg xmlns="http://www.w3.org/2000/svg" viewBox="0 0 936 1404"><filter id="b"><feGaussianBlur stdDeviation="12" /></filter><path fill="#bbb" d="M0 0h932v1404H0z"/><g filter="url(#b)" transform="translate(2.7 2.7) scale(5.48438)" fill-opacity=".5"><ellipse rx="1" ry="1" transform="matrix(14.67515 -98.19373 37.5584 5.61314 59.4 187)"/><ellipse fill="#fff" cx="110" rx="105" ry="105"/><ellipse rx="1" ry="1" transform="matrix(12.95312 -12.16936 42.81451 45.57195 98.8 137.7)"/><ellipse fill="#fff" rx="1" ry="1" transform="matrix(49.44515 25.8136 -20.42522 39.12386 141.8 227)"/><ellipse rx="1" ry="1" transform="matrix(8.81663 -32.06702 7.13643 1.96212 20.1 100)"/><ellipse fill="#fff" rx="1" ry="1" transform="matrix(28.37804 -26.1865 85.76828 92.9462 130.6 100)"/><ellipse rx="1" ry="1" transform="matrix(-38.89786 .03331 -.01386 -16.18087 54.7 249.5)"/><ellipse fill="#0a0a0a" cx="63" cy="184" rx="33" ry="35"/></g></svg>