<svg xmlns="http://www.w3.org/2000/svg" viewBox="0 0 1404 936"><filter id="b"><feGaussianBlur stdDeviation="12" /></filter><path fill="#9fadb4" d="M0 0h1404v932H0z"/><g filter="url(#b)" transform="translate(2.7 2.7) scale(5.48438)" fill-opacity=".5"><ellipse rx="1" ry="1" transform="matrix(174.72475 4.64171 -1.0625 39.99466 127 169)"/><ellipse fill="#fff" cx="43" cy="70" rx="115" ry="57"/><ellipse fill="#fff" rx="1" ry="1" transform="matrix(1.23612 64.5406 -52.72255 1.00977 234 76.9)"/><path d="M179.6 179.8L155 73.6l23.4-5.4L203 174.4z"/><ellipse rx="1" ry="1" transform="matrix(1.1099 -32.867 142.2789 4.80469 139.5 169)"/><path fill="#fff" d="M203 156l68-68-102-78z"/><path fill="#0f3a56" d="M147 90l-21 55-33-46z"/><ellipse fill="#fff" cx="43" cy="80" rx="69" ry="50"/></g></svg>