<svg xmlns="http://www.w3.org/2000/svg" viewBox="0 0 1404 936"><filter id="b"><feGaussianBlur stdDeviation="12" /></filter><path fill="#8e491c" d="M0 0h1404v932H0z"/><g filter="url(#b)" transform="translate(2.7 2.7) scale(5.48438)" fill-opacity=".5"><ellipse fill="#ec8c45" rx="1" ry="1" transform="matrix(68.82263 69.41694 -43.29539 42.92472 247 169)"/><ellipse fill="#232938" rx="1" ry="1" transform="rotate(-98 131.9 -85.5) scale(75.05763 29.12508)"/><ellipse cx="129" cy="140" rx="14" ry="33"/><ellipse fill="#ffc455" rx="1" ry="1" transform="matrix(6.24618 21.36026 -13.4892 3.94452 129.9 31.5)"/><ellipse fill="#0c0000" cx="65" cy="80" rx="17" ry="29"/><path fill="#ff9527" d="M47 104l16.2 7.8L25 190l-16.2-7.8z"/><ellipse fill="#240800" rx="1" ry="1" transform="rotate(-167.8 89.3 23.2) scale(15.36441 55.35811)"/><ellipse fill="#ff8926" rx="1" ry="1" transform="matrix(7.57045 -.95004 10.04563 80.0488 105.8 126)"/></g></svg>