<svg xmlns="http://www.w3.org/2000/svg" viewBox="0 0 1404 936"><filter id="b"><feGaussianBlur stdDeviation="12" /></filter><path fill="#043741" d="M0 0h1404v932H0z"/><g filter="url(#b)" transform="translate(2.7 2.7) scale(5.48438)" fill-opacity=".5"><ellipse fill="#27ffff" rx="1" ry="1" transform="matrix(-70.28803 -3.15244 1.21673 -27.12864 127.2 67.5)"/><ellipse fill="#39d1ef" rx="1" ry="1" transform="matrix(-26.07364 28.96003 -18.49722 -16.65364 99.5 92.4)"/><ellipse cx="167" cy="149" rx="254" ry="26"/><ellipse fill="#38ffff" cx="134" cy="72" rx="48" ry="18"/><ellipse fill="#0ef" cx="187" cy="103" rx="10" ry="23"/><ellipse rx="1" ry="1" transform="matrix(-35.23182 15.24617 -97.4487 -225.19067 255 89.2)"/><ellipse fill="#006f95" rx="1" ry="1" transform="matrix(-14.94642 43.20335 -29.60397 -10.24165 72.2 75)"/><ellipse rx="1" ry="1" transform="matrix(1.21369 -25.16075 249.55563 12.03791 65.3 149)"/></g></svg>