<svg xmlns="http://www.w3.org/2000/svg" viewBox="0 0 1404 936"><filter id="c"><feGaussianBlur stdDeviation="55" /></filter><path fill="#6f5843" d="M0 0h1404v932H0z"/><g filter='url(#c)' fill-opacity='.5'><ellipse fill-opacity=".5" rx="1" ry="1" transform="matrix(-144.34953 -118.99257 206.71216 -250.7619 804.5 567.9)"/><ellipse fill-opacity=".5" rx="1" ry="1" transform="matrix(100.13258 361.06642 -160.14045 44.41088 311.5 729.3)"/><ellipse fill="#f5ccbe" fill-opacity=".5" rx="1" ry="1" transform="rotate(-68.5 327.6 -80) scale(154.29219 227.30417)"/><ellipse fill="#fff" fill-opacity=".5" rx="1" ry="1" transform="matrix(-258.44573 73.14136 -28.14307 -99.4438 697.6 929.6)"/><ellipse fill="#ff2f28" fill-opacity=".5" rx="1" ry="1" transform="rotate(24.8 -1335.5 2697.2) scale(239.81644 91.71805)"/><ellipse fill="#f2e460" fill-opacity=".5" rx="1" ry="1" transform="matrix(102.52856 27.93292 -70.19162 257.6403 21 567.5)"/><ellipse fill="#e8dece" fill-opacity=".5" rx="1" ry="1" transform="matrix(-24.59892 -203.27451 54.4561 -6.58991 1245.5 560.7)"/><path fill="#fff0c3" fill-opacity=".5" d="M557.8 451.5l-14.3 355.8L446 774l51.5-331.5z"/></g></svg>