<svg xmlns="http://www.w3.org/2000/svg" viewBox="0 0 1404 936"><filter id="b"><feGaussianBlur stdDeviation="12" /></filter><path fill="#81563a" d="M0 0h1404v932H0z"/><g filter="url(#b)" transform="translate(2.7 2.7) scale(5.48438)" fill-opacity=".5"><ellipse fill="#ffc42f" rx="1" ry="1" transform="matrix(-19.7046 30.32445 -44.66485 -29.02288 190.3 47.5)"/><ellipse fill="#ff0" rx="1" ry="1" transform="matrix(38.16466 17.30484 -9.51443 20.98343 94 0)"/><ellipse fill="#001d35" rx="1" ry="1" transform="matrix(78.59602 -8.26077 2.99976 28.54079 35.4 130.5)"/><ellipse fill="#bab8c8" rx="1" ry="1" transform="rotate(52.4 -42.5 272.8) scale(56.98325 19.83154)"/><ellipse fill="#020007" cx="255" cy="117" rx="37" ry="57"/><ellipse fill="red" rx="1" ry="1" transform="matrix(-3.81297 13.9715 -47.41368 -12.9397 36.5 10.6)"/><ellipse rx="1" ry="1" transform="matrix(-4.958 49.62025 -16.5075 -1.64941 146.1 157)"/><path fill="#1b0414" d="M-16-5l51 155L51 42z"/></g></svg>